<svg xmlns="http://www.w3.org/2000/svg" width="1200" height="630" viewBox="0 0 1200 630">
  <defs>
    <linearGradient id="bg" x1="0" y1="0" x2="0" y2="1">
      <stop offset="0" stop-color="#0b0f14"/><stop offset="1" stop-color="#10161e"/>
    </linearGradient>
    <linearGradient id="bar" x1="0" y1="0" x2="1" y2="0">
      <stop offset="0" stop-color="#f59e0b"/><stop offset="1" stop-color="#58a6ff"/>
    </linearGradient>
    <radialGradient id="glow" cx="0.85" cy="0.12" r="0.6">
      <stop offset="0" stop-color="#f59e0b" stop-opacity="0.16"/>
      <stop offset="1" stop-color="#f59e0b" stop-opacity="0"/>
    </radialGradient>
  </defs>
  <rect width="1200" height="630" fill="url(#bg)"/>
  <rect width="1200" height="630" fill="url(#glow)"/>
  <rect width="1200" height="8" fill="url(#bar)"/>
  <path d="M88,70 L100,77 L100,91 L88,98 L76,91 L76,77 Z" fill="#f59e0b"/>
  <text x="112" y="93" font-family="Menlo, Monaco, monospace" font-size="30" font-weight="700" fill="#fbbf24">okforge</text>
  <text x="1128" y="92" text-anchor="end" font-family="Menlo, Monaco, monospace" font-size="22" letter-spacing="3" fill="#8b949e">PART 1 / 4</text>
  <line x1="72" y1="556" x2="1128" y2="556" stroke="#1c232c" stroke-width="1"/>
  <text x="72" y="590" font-family="Menlo, Monaco, monospace" font-size="20" fill="#8b949e">A 4-part series  /  keeping knowledge in sync with code</text>
<text x="72" y="179" font-family="Helvetica Neue, Helvetica, Arial, sans-serif" font-size="60" font-weight="800" fill="#f0f6fc">The Faster AI Writes</text>
<text x="72" y="246" font-family="Helvetica Neue, Helvetica, Arial, sans-serif" font-size="60" font-weight="800" fill="#f0f6fc">Code, the Faster</text>
<text x="72" y="314" font-family="Helvetica Neue, Helvetica, Arial, sans-serif" font-size="60" font-weight="800" fill="#f0f6fc">Your Docs Rot</text>
<rect x="72" y="473" width="5" height="36" fill="#fbbf24"/>
<text x="92" y="500" font-family="Helvetica Neue, Helvetica, Arial, sans-serif" font-size="27" font-style="italic" fill="#c9d1d9">Knowledge is derived state.</text>
  <polygon points="772,360 1104,150 1104,330" fill="#fbbf24" fill-opacity="0.10"/>
  <line x1="772" y1="360" x2="1104" y2="150" stroke="#fbbf24" stroke-width="6" stroke-linecap="round"/>
  <polygon points="1104,150 1091,168 1083,154" fill="#fbbf24"/>
  <line x1="772" y1="360" x2="1104" y2="330" stroke="#58a6ff" stroke-width="6" stroke-linecap="round"/>
  <polygon points="1104,330 1085,340 1083,324" fill="#58a6ff"/>
  <circle cx="772" cy="360" r="7" fill="#f0f6fc"/>
  <text x="1104" y="138" text-anchor="end" font-family="Menlo, Monaco, monospace" font-size="22" fill="#fbbf24">code</text>
  <text x="1104" y="356" text-anchor="end" font-family="Menlo, Monaco, monospace" font-size="22" fill="#58a6ff">docs</text>
  <text x="928" y="272" text-anchor="middle" font-family="Menlo, Monaco, monospace" font-size="20" fill="#c9d1d9">knowledge debt</text>
</svg>
