<svg xmlns="http://www.w3.org/2000/svg" width="1200" height="630" viewBox="0 0 1200 630">
  <defs>
    <linearGradient id="bg" x1="0" y1="0" x2="0" y2="1">
      <stop offset="0" stop-color="#0b0f14"/><stop offset="1" stop-color="#10161e"/>
    </linearGradient>
    <linearGradient id="bar" x1="0" y1="0" x2="1" y2="0">
      <stop offset="0" stop-color="#f59e0b"/><stop offset="1" stop-color="#58a6ff"/>
    </linearGradient>
    <radialGradient id="glow" cx="0.85" cy="0.12" r="0.6">
      <stop offset="0" stop-color="#f59e0b" stop-opacity="0.16"/>
      <stop offset="1" stop-color="#f59e0b" stop-opacity="0"/>
    </radialGradient>
  </defs>
  <rect width="1200" height="630" fill="url(#bg)"/>
  <rect width="1200" height="630" fill="url(#glow)"/>
  <rect width="1200" height="8" fill="url(#bar)"/>
  <path d="M88,70 L100,77 L100,91 L88,98 L76,91 L76,77 Z" fill="#f59e0b"/>
  <text x="112" y="93" font-family="Menlo, Monaco, monospace" font-size="30" font-weight="700" fill="#fbbf24">okforge</text>
  <text x="1128" y="92" text-anchor="end" font-family="Menlo, Monaco, monospace" font-size="22" letter-spacing="3" fill="#8b949e">PART 3 / 4</text>
  <line x1="72" y1="556" x2="1128" y2="556" stroke="#1c232c" stroke-width="1"/>
  <text x="72" y="590" font-family="Menlo, Monaco, monospace" font-size="20" fill="#8b949e">A 4-part series  /  keeping knowledge in sync with code</text>
<text x="72" y="174" font-family="Helvetica Neue, Helvetica, Arial, sans-serif" font-size="66" font-weight="800" fill="#f0f6fc">Don't Make It</text>
<text x="72" y="248" font-family="Helvetica Neue, Helvetica, Arial, sans-serif" font-size="66" font-weight="800" fill="#f0f6fc">Remember,</text>
<text x="72" y="322" font-family="Helvetica Neue, Helvetica, Arial, sans-serif" font-size="66" font-weight="800" fill="#f0f6fc">Make It Read</text>
<rect x="72" y="473" width="5" height="36" fill="#fbbf24"/>
<text x="92" y="500" font-family="Helvetica Neue, Helvetica, Arial, sans-serif" font-size="27" font-style="italic" fill="#c9d1d9">Silence is recoverable; confident fiction is not.</text>
  <rect x="800" y="140" width="150" height="50" rx="25" fill="none" stroke="#8b949e" stroke-width="2.5" opacity="0.6"/>
  <text x="875" y="172" text-anchor="middle" font-family="Menlo, Monaco, monospace" font-size="22" fill="#8b949e" opacity="0.7">recall</text>
  <line x1="804" y1="192" x2="946" y2="140" stroke="#f85149" stroke-width="3"/>
  <path d="M796,250 L842,250 L858,266 L858,334 Q858,342 850,342 L796,342 Q788,342 788,334 L788,258 Q788,250 796,250 Z" fill="#0d1117" stroke="#fbbf24" stroke-width="3"/>
<path d="M842,250 L842,266 L858,266" fill="none" stroke="#fbbf24" stroke-width="3"/>
<rect x="802" y="284" width="26" height="5" rx="2" fill="#8b949e" opacity="0.55"/>
<rect x="802" y="300" width="26" height="5" rx="2" fill="#8b949e" opacity="0.55"/>
<rect x="802" y="316" width="0" height="5" rx="2" fill="#8b949e" opacity="0.55"/>
  <path d="M1022,250 L1068,250 L1084,266 L1084,334 Q1084,342 1076,342 L1022,342 Q1014,342 1014,334 L1014,258 Q1014,250 1022,250 Z" fill="#0d1117" stroke="#fbbf24" stroke-width="3"/>
<path d="M1068,250 L1068,266 L1084,266" fill="none" stroke="#fbbf24" stroke-width="3"/>
<rect x="1028" y="284" width="26" height="5" rx="2" fill="#8b949e" opacity="0.55"/>
<rect x="1028" y="300" width="26" height="5" rx="2" fill="#8b949e" opacity="0.55"/>
<rect x="1028" y="316" width="0" height="5" rx="2" fill="#8b949e" opacity="0.55"/>
  <line x1="876" y1="296" x2="1002" y2="296" stroke="#fbbf24" stroke-width="5" stroke-linecap="round"/>
  <polygon points="1010,296 992,287 992,305" fill="#fbbf24"/>
  <text x="939" y="280" text-anchor="middle" font-family="Menlo, Monaco, monospace" font-size="22" fill="#fbbf24">read</text>
  <text x="823" y="372" text-anchor="middle" font-family="Menlo, Monaco, monospace" font-size="20" fill="#8b949e">source</text>
  <text x="1049" y="372" text-anchor="middle" font-family="Menlo, Monaco, monospace" font-size="20" fill="#8b949e">doc</text>
</svg>
