<svg xmlns="http://www.w3.org/2000/svg" width="1200" height="630" viewBox="0 0 1200 630">
  <defs>
    <linearGradient id="bg" x1="0" y1="0" x2="0" y2="1">
      <stop offset="0" stop-color="#0b0f14"/><stop offset="1" stop-color="#10161e"/>
    </linearGradient>
    <linearGradient id="bar" x1="0" y1="0" x2="1" y2="0">
      <stop offset="0" stop-color="#f59e0b"/><stop offset="1" stop-color="#58a6ff"/>
    </linearGradient>
    <radialGradient id="glow" cx="0.85" cy="0.12" r="0.6">
      <stop offset="0" stop-color="#f59e0b" stop-opacity="0.16"/>
      <stop offset="1" stop-color="#f59e0b" stop-opacity="0"/>
    </radialGradient>
  </defs>
  <rect width="1200" height="630" fill="url(#bg)"/>
  <rect width="1200" height="630" fill="url(#glow)"/>
  <rect width="1200" height="8" fill="url(#bar)"/>
  <path d="M88,70 L100,77 L100,91 L88,98 L76,91 L76,77 Z" fill="#f59e0b"/>
  <text x="112" y="93" font-family="Menlo, Monaco, monospace" font-size="30" font-weight="700" fill="#fbbf24">okforge</text>
  <text x="1128" y="92" text-anchor="end" font-family="Menlo, Monaco, monospace" font-size="22" letter-spacing="3" fill="#8b949e">PART 4 / 4</text>
  <line x1="72" y1="556" x2="1128" y2="556" stroke="#1c232c" stroke-width="1"/>
  <text x="72" y="590" font-family="Menlo, Monaco, monospace" font-size="20" fill="#8b949e">A 4-part series  /  keeping knowledge in sync with code</text>
<text x="72" y="205" font-family="Helvetica Neue, Helvetica, Arial, sans-serif" font-size="84" font-weight="800" fill="#f0f6fc">Bet on Boring</text>
<text x="72" y="299" font-family="Helvetica Neue, Helvetica, Arial, sans-serif" font-size="84" font-weight="800" fill="#f0f6fc">Formats</text>
<rect x="72" y="473" width="5" height="36" fill="#fbbf24"/>
<text x="92" y="500" font-family="Helvetica Neue, Helvetica, Arial, sans-serif" font-size="27" font-style="italic" fill="#c9d1d9">Clever decays; boring compounds.</text>
  <rect x="772" y="210" width="160" height="140" rx="14" fill="none" stroke="#8b949e" stroke-width="2.5" stroke-dasharray="7 7" opacity="0.45"/>
  <circle cx="812" cy="250" r="11" fill="none" stroke="#8b949e" stroke-width="2.5" opacity="0.45"/>
  <circle cx="892" cy="250" r="11" fill="none" stroke="#8b949e" stroke-width="2.5" opacity="0.45"/>
  <rect x="800" y="290" width="104" height="14" rx="4" fill="#8b949e" opacity="0.4"/>
  <text x="852" y="338" text-anchor="middle" font-family="Menlo, Monaco, monospace" font-size="20" fill="#8b949e" opacity="0.6">clever app</text>
  <path d="M888,132 L1060,132 L1076,148 L1076,374 Q1076,382 1068,382 L888,382 Q880,382 880,374 L880,140 Q880,132 888,132 Z" fill="#0d1117" stroke="#fbbf24" stroke-width="3"/>
<path d="M1060,132 L1060,148 L1076,148" fill="none" stroke="#fbbf24" stroke-width="3"/>
<rect x="894" y="166" width="152" height="5" rx="2" fill="#8b949e" opacity="0.55"/>
<rect x="894" y="182" width="152" height="5" rx="2" fill="#8b949e" opacity="0.55"/>
<rect x="894" y="198" width="126" height="5" rx="2" fill="#8b949e" opacity="0.55"/>
  <text x="978" y="178" text-anchor="middle" font-family="Menlo, Monaco, monospace" font-size="34" font-weight="700" fill="#fbbf24">.md</text>
</svg>
