<svg xmlns="http://www.w3.org/2000/svg" width="1200" height="630" viewBox="0 0 1200 630">
  <defs>
    <linearGradient id="bg" x1="0" y1="0" x2="0" y2="1">
      <stop offset="0" stop-color="#0b0f14"/><stop offset="1" stop-color="#10161e"/>
    </linearGradient>
    <linearGradient id="bar" x1="0" y1="0" x2="1" y2="0">
      <stop offset="0" stop-color="#f59e0b"/><stop offset="1" stop-color="#58a6ff"/>
    </linearGradient>
    <radialGradient id="glow" cx="0.85" cy="0.12" r="0.6">
      <stop offset="0" stop-color="#f59e0b" stop-opacity="0.16"/>
      <stop offset="1" stop-color="#f59e0b" stop-opacity="0"/>
    </radialGradient>
  </defs>
  <rect width="1200" height="630" fill="url(#bg)"/>
  <rect width="1200" height="630" fill="url(#glow)"/>
  <rect width="1200" height="8" fill="url(#bar)"/>
  <path d="M88,70 L100,77 L100,91 L88,98 L76,91 L76,77 Z" fill="#f59e0b"/>
  <text x="112" y="93" font-family="Menlo, Monaco, monospace" font-size="30" font-weight="700" fill="#fbbf24">okforge</text>
  <text x="1128" y="92" text-anchor="end" font-family="Menlo, Monaco, monospace" font-size="22" letter-spacing="3" fill="#8b949e">PART 2 / 4</text>
  <line x1="72" y1="556" x2="1128" y2="556" stroke="#1c232c" stroke-width="1"/>
  <text x="72" y="590" font-family="Menlo, Monaco, monospace" font-size="20" fill="#8b949e">A 4-part series  /  keeping knowledge in sync with code</text>
<text x="72" y="205" font-family="Helvetica Neue, Helvetica, Arial, sans-serif" font-size="84" font-weight="800" fill="#f0f6fc">Give the Model</text>
<text x="72" y="299" font-family="Helvetica Neue, Helvetica, Arial, sans-serif" font-size="84" font-weight="800" fill="#f0f6fc">Less</text>
<rect x="72" y="473" width="5" height="36" fill="#fbbf24"/>
<text x="92" y="500" font-family="Helvetica Neue, Helvetica, Arial, sans-serif" font-size="27" font-style="italic" fill="#c9d1d9">If you can write a test for it, don't write a prompt for it.</text>
  <rect x="762" y="120" width="350" height="290" rx="18" fill="#58a6ff" fill-opacity="0.05" stroke="#58a6ff" stroke-width="3"/>
  <text x="937" y="392" text-anchor="middle" font-family="Menlo, Monaco, monospace" font-size="22" fill="#58a6ff">deterministic code</text>
  <rect x="792" y="156" width="150" height="100" rx="12" fill="#fbbf24" fill-opacity="0.14" stroke="#fbbf24" stroke-width="3"/>
  <text x="867" y="213" text-anchor="middle" font-family="Menlo, Monaco, monospace" font-size="24" fill="#fbbf24">model</text>
  <path d="M1023,205 L1032,214 L1048,193" fill="none" stroke="#58a6ff" stroke-width="4" stroke-linecap="round" stroke-linejoin="round" opacity="0.55"/>
  <path d="M1048,295 L1057,304 L1073,283" fill="none" stroke="#58a6ff" stroke-width="4" stroke-linecap="round" stroke-linejoin="round" opacity="0.55"/>
  <path d="M893,340 L902,349 L918,328" fill="none" stroke="#58a6ff" stroke-width="4" stroke-linecap="round" stroke-linejoin="round" opacity="0.55"/>
</svg>
